<svg width="1170" height="250" viewBox="0 0 1170 250" fill="none" xmlns="http://www.w3.org/2000/svg">
<path d="M41.0832 160.679C39.5261 160.668 38.027 160.109 36.8675 159.108L13.885 136.976C13.3174 136.451 12.8658 135.82 12.5573 135.123C12.2488 134.425 12.0898 133.675 12.0898 132.916C12.0898 132.158 12.2488 131.408 12.5573 130.71C12.8658 130.013 13.3174 129.382 13.885 128.857L71.0013 75.5569C72.0931 74.5329 73.5569 73.96 75.081 73.96C76.605 73.96 78.0689 74.5329 79.1607 75.5569L102.551 97.2959C103.119 97.8213 103.57 98.4517 103.879 99.1493C104.187 99.8469 104.346 100.597 104.346 101.356C104.346 102.114 104.187 102.864 103.879 103.562C103.57 104.259 103.119 104.89 102.551 105.415L44.619 159.108C43.668 160.014 42.4166 160.571 41.0832 160.679V160.679Z" fill="url(#paint0_radial)"/>
<path d="M102.552 53.9523L56.0434 10.8672C48.9367 4.23002 39.4251 0.519215 29.5252 0.521485C24.4441 0.576683 19.4246 1.60032 14.7565 3.53333C10.0883 5.46634 5.8639 8.27046 2.32698 11.7839C1.11493 12.8231 0.381183 14.2834 0.287109 15.8435C0.294066 16.579 0.454106 17.3056 0.757764 17.9804C1.06142 18.6552 1.50253 19.2645 2.05499 19.7723L65.8348 79.0962C67.0319 80.0312 68.1673 81.0372 69.2346 82.1082C76.2305 89.05 80.3209 98.2334 80.7224 107.899C81.1239 117.565 77.8082 127.034 71.4104 134.491L102.552 105.288C106.126 101.944 108.967 97.943 110.906 93.523C112.846 89.1029 113.846 84.3531 113.846 79.5545C113.846 74.7559 112.846 70.0061 110.906 65.586C108.967 61.166 106.126 57.1655 102.552 53.8213V53.9523Z" fill="url(#paint1_linear)"/>
<path d="M46.5278 152.699C39.5319 145.757 35.4415 136.573 35.04 126.908C34.6385 117.242 37.9542 107.773 44.352 100.315L13.89 128.864C10.2154 132.237 7.30401 136.304 5.3383 140.811C3.37259 145.318 2.39498 150.168 2.46675 155.056C2.37421 159.911 3.30234 164.734 5.19533 169.235C7.08832 173.736 9.90705 177.822 13.482 181.247L83.2454 248.429C83.784 248.937 84.4218 249.338 85.1221 249.607C85.8223 249.877 86.5711 250.011 87.3251 250C88.8823 249.988 90.3813 249.43 91.5409 248.429C95.1263 244.997 97.9716 240.916 99.9133 236.421C101.855 231.926 102.854 227.105 102.854 222.237C102.854 217.369 101.855 212.548 99.9133 208.054C97.9716 203.559 95.1263 199.478 91.5409 196.046L48.9757 155.056L46.5278 152.699Z" fill="url(#paint2_linear)"/>
<path d="M264.929 61.6758C260.688 61.6985 256.474 62.3161 252.418 63.5092C248.36 64.5673 244.471 66.1535 240.859 68.2237C237.383 70.0646 234.218 72.4051 231.475 75.1644C230.463 76.0269 229.551 76.993 228.755 78.0455V63.2473H195.981V185.824H228.755V132.655C227.767 121.403 231.053 110.189 238.003 101.094C241.552 97.6982 245.817 95.0757 250.509 93.4038C255.201 91.732 260.211 91.0497 265.201 91.4032H270.641C272.521 91.6351 274.383 91.9851 276.216 92.4509H278.528V64.164H277.304C273.394 62.5425 269.186 61.6963 264.929 61.6758Z" fill="white"/>
<path d="M449.057 79.094C443.014 73.4742 435.904 69.028 428.115 65.9983C410.437 59.1855 390.715 59.1855 373.038 65.9983C365.186 68.9861 358.023 73.4363 351.96 79.094C346.079 85.0785 341.46 92.1056 338.361 99.7854C332.018 115.585 332.018 133.095 338.361 148.895C341.497 156.478 346.113 163.413 351.96 169.324C357.855 175.534 365.035 180.485 373.038 183.86C390.715 190.673 410.437 190.673 428.115 183.86C436.029 180.521 443.155 175.664 449.057 169.586C454.942 163.704 459.563 156.762 462.656 149.156C468.999 133.357 468.999 115.847 462.656 100.047C459.634 92.2527 455.008 85.1259 449.057 79.094V79.094ZM414.244 157.669C409.964 159.519 405.335 160.499 400.644 160.55C395.95 160.53 391.314 159.548 387.045 157.669C382.985 155.777 379.339 153.154 376.302 149.942C373.268 146.598 370.915 142.732 369.367 138.549C366.102 129.562 366.102 119.773 369.367 110.786C370.851 106.574 373.211 102.697 376.302 99.3925C379.387 96.0074 383.197 93.3062 387.469 91.475C391.742 89.6438 396.376 88.726 401.052 88.7849C405.768 88.7314 410.44 89.6503 414.756 91.4799C419.072 93.3096 422.931 96.0075 426.075 99.3925C429.18 102.711 431.582 106.581 433.146 110.786C436.594 119.742 436.594 129.592 433.146 138.549C431.551 142.74 429.152 146.605 426.075 149.942C422.829 153.213 418.948 155.838 414.652 157.669H414.244Z" fill="white"/>
<path d="M629.516 126.506C629.847 135.199 627.428 143.785 622.581 151.126C620.265 154.314 617.132 156.87 613.486 158.545C609.839 160.221 605.804 160.958 601.774 160.686C597.618 160.811 593.498 159.909 589.807 158.066C586.787 156.401 584.223 154.067 582.328 151.257C580.3 147.946 578.917 144.307 578.248 140.518C577.292 135.905 576.837 131.209 576.888 126.506V63.2529H544.25V135.673C544.101 142.653 544.693 149.63 546.018 156.495C547.167 161.995 549.381 167.237 552.546 171.948C556.349 177.273 561.56 181.523 567.641 184.258C575.019 187.488 583.065 189.056 591.167 188.841C598.077 189.489 605.051 188.754 611.65 186.68C618.25 184.607 624.333 181.241 629.516 176.793V185.829H662.154V63.2529H629.516V126.506Z" fill="white"/>
<path d="M813.65 158.333H805.627C803.253 158.342 800.884 158.123 798.555 157.678C796.734 157.281 795.076 156.369 793.796 155.059C792.25 153.283 791.176 151.17 790.668 148.904C789.872 145.024 789.508 141.073 789.58 137.118V90.1043H817.866V63.9127H789.036V26.7207H756.806V63.2579H736V90.1043H756.806V143.666C756.577 152.003 758.297 160.282 761.838 167.893C764.287 173.131 768.135 177.65 772.989 180.989C777.01 183.779 781.679 185.577 786.588 186.227C790.685 186.819 794.821 187.126 798.963 187.144C803.086 187.349 807.216 187.349 811.339 187.144C814.483 186.952 817.615 186.602 820.722 186.096H822.354V157.286L819.77 158.202C817.762 158.656 815.678 158.7 813.65 158.333V158.333Z" fill="white"/>
<path d="M989.35 76.0781C978.004 65.7527 962.938 60.0717 947.328 60.2322C938.011 60.0131 928.749 61.6632 920.13 65.0776C912.658 68.0303 905.933 72.4966 900.412 78.1734C895.025 84.1532 890.913 91.0947 888.308 98.6028C885.411 106.956 884.031 115.728 884.229 124.532C884.191 133.016 885.522 141.454 888.172 149.545C890.62 157.355 894.744 164.582 900.276 170.761C905.864 176.422 912.629 180.884 920.13 183.856C929.023 187.321 938.553 189.014 948.144 188.833C955.627 188.948 963.076 187.841 970.175 185.559C976.412 183.549 982.251 180.538 987.446 176.654C992.257 173.055 996.318 168.611 999.413 163.558C1002.37 158.85 1004.4 153.655 1005.4 148.236V146.14H972.759V147.319C971.119 151.269 968.505 154.775 965.143 157.534C960.228 160.728 954.325 162.207 948.416 161.724C943.497 161.867 938.597 161.065 934.001 159.367C930.455 158.052 927.285 155.942 924.754 153.212C922.386 150.516 920.584 147.403 919.45 144.045C918.47 140.925 917.788 137.725 917.41 134.485H1005.12V133.045C1005.81 129.712 1006.31 126.346 1006.62 122.961C1006.62 120.08 1006.62 117.592 1006.62 115.627C1006.65 108.067 1005.08 100.58 1002 93.6264C998.957 87.0675 994.667 81.1153 989.35 76.0781V76.0781ZM946.513 84.8522C950.231 84.6739 953.949 85.2327 957.434 86.4942C960.92 87.7557 964.099 89.6929 966.775 92.1859C971.75 97.0854 974.533 103.667 974.527 110.52H917.002C916.871 107.085 917.521 103.665 918.907 100.498C920.293 97.3307 922.381 94.4938 925.026 92.1859C930.968 87.2141 938.645 84.5938 946.513 84.8522V84.8522Z" fill="white"/>
<path d="M1167.77 63.6431C1164.08 62.2918 1160.16 61.6252 1156.21 61.6788C1151.97 61.7014 1147.76 62.3191 1143.7 63.5122C1139.64 64.5703 1135.75 66.1564 1132.14 68.2267C1128.67 70.0676 1125.5 72.4081 1122.76 75.1674C1121.78 76.0644 1120.87 77.0272 1120.04 78.0485V63.2503H1086.72V185.827H1119.49V132.658C1118.58 121.374 1121.97 110.156 1129.01 101.097C1132.56 97.7012 1136.83 95.0787 1141.52 93.4068C1146.21 91.7349 1151.22 91.0527 1156.21 91.4062H1161.65C1163.53 91.6381 1165.39 91.9881 1167.23 92.4538H1169.54V64.167L1167.77 63.6431Z" fill="white"/>
<defs>
<radialGradient id="paint0_radial" cx="0" cy="0" r="1" gradientUnits="userSpaceOnUse" gradientTransform="translate(58.0821 117.332) scale(45.693 44.0018)">
<stop stop-color="#BE4650"/>
<stop offset="1" stop-color="#9B375A"/>
</radialGradient>
<linearGradient id="paint1_linear" x1="0.287109" y1="67.4409" x2="113.84" y2="67.4409" gradientUnits="userSpaceOnUse">
<stop stop-color="#FF3C55"/>
<stop offset="0.51" stop-color="#FF3D56"/>
<stop offset="1" stop-color="#FF8B65"/>
</linearGradient>
<linearGradient id="paint2_linear" x1="2.05877" y1="174.83" x2="102.284" y2="174.83" gradientUnits="userSpaceOnUse">
<stop stop-color="#FF3C55"/>
<stop offset="0.51" stop-color="#FF3C55"/>
<stop offset="1" stop-color="#FF8B65"/>
</linearGradient>
</defs>
</svg>
