<svg width="400" height="400" viewBox="0 0 400 400" fill="none" xmlns="http://www.w3.org/2000/svg">
<circle cx="200" cy="200" r="200" fill="#313151"/>
<path d="M179.11 246.109C177.336 246.109 175.563 246.109 173.79 244.336L145.415 215.961C143.641 214.187 143.641 212.414 143.641 210.641C143.641 208.867 143.641 207.094 145.415 205.32L216.352 136.156C218.125 134.383 219.899 134.383 221.672 134.383C223.446 134.383 225.219 134.383 226.993 136.156L257.141 164.531C258.915 164.531 258.915 168.078 258.915 169.852C258.915 171.625 258.915 173.398 257.141 175.172L184.43 244.336C182.657 246.109 180.883 246.109 179.11 246.109Z" fill="url(#paint0_radial_852_16)"/>
<path d="M257.141 107.781L198.618 51.0313C189.75 43.9375 179.11 38.6172 166.696 38.6172C154.282 38.6172 141.868 43.9375 133 52.8047C129.454 54.5781 129.454 56.3516 129.454 58.125C129.454 59.8984 129.454 61.6719 131.227 63.4453L211.032 139.703C212.805 141.477 214.579 141.477 214.579 143.25C232.313 162.758 234.086 191.133 218.125 210.641L257.141 173.398C266.008 166.305 271.329 153.891 271.329 141.477C271.329 129.062 266.008 116.648 257.141 107.781Z" fill="url(#paint1_linear_852_16)"/>
<path d="M187.977 235.469C170.243 215.961 168.469 187.586 186.204 168.078L147.188 205.32C138.321 214.188 133 226.602 133 239.016C133 251.43 138.321 263.844 147.188 272.711L232.313 359.609C234.086 361.383 235.86 361.383 237.633 361.383C239.407 361.383 241.18 361.383 242.954 359.609C251.821 350.742 257.141 338.328 257.141 325.914C257.141 313.5 251.821 301.086 242.954 292.219L189.75 239.016C189.75 237.242 187.977 237.242 187.977 235.469Z" fill="url(#paint2_linear_852_16)"/>
<defs>
<radialGradient id="paint0_radial_852_16" cx="0" cy="0" r="1" gradientUnits="userSpaceOnUse" gradientTransform="translate(201.569 190.049) scale(57.032)">
<stop stop-color="#BE4650"/>
<stop offset="1" stop-color="#9B375A"/>
</radialGradient>
<linearGradient id="paint1_linear_852_16" x1="129.454" y1="125.276" x2="271.329" y2="125.276" gradientUnits="userSpaceOnUse">
<stop stop-color="#FF3C55"/>
<stop offset="0.514" stop-color="#FF3D56"/>
<stop offset="1" stop-color="#FF8B65"/>
</linearGradient>
<linearGradient id="paint2_linear_852_16" x1="131.594" y1="264.675" x2="256.928" y2="264.675" gradientUnits="userSpaceOnUse">
<stop stop-color="#FF3C55"/>
<stop offset="0.514" stop-color="#FF3C55"/>
<stop offset="1" stop-color="#FF8B65"/>
</linearGradient>
</defs>
</svg>
